# =================================== #
# Created by Kajaman's Road Generator #
# =================================== #
mtllib SkyTrack05_CGrid
o SkyTrack05_CGrid
v -193.503 0.04 -18.1397
v -193.7149 0.04 -20.12845
v -193.0058 0.04 -18.19267
v -193.2177 0.04 -20.18141
v -191.0423 0.04 -23.42297
v -191.2458 0.04 -25.41259
v -190.5449 0.04 -23.47384
v -190.7484 0.04 -25.46346
v -201.4142 0.04 -17.25423
v -201.6484 0.04 -19.24047
v -200.9176 0.04 -17.31277
v -201.1518 0.04 -19.29901
v -199.0132 0.04 -22.56476
v -199.239 0.04 -24.55197
v -198.5164 0.04 -22.62121
v -198.7422 0.04 -24.60842
v -209.3152 0.04 -16.28003
v -209.5716 0.04 -18.26352
v -208.8194 0.04 -16.34413
v -209.0758 0.04 -18.32763
v -206.9771 0.04 -21.61429
v -207.2303 0.04 -23.5982
v -206.4812 0.04 -21.6776
v -206.7344 0.04 -23.6615
v -217.1585 0.04 -15.15539
v -217.458 0.04 -17.13284
v -216.6642 0.04 -15.23026
v -216.9637 0.04 -17.20771
v -214.9299 0.04 -20.53755
v -215.2168 0.04 -22.51687
v -214.4351 0.04 -20.60927
v -214.722 0.04 -22.58859
v -225.0005 0.04 -13.90649
v -225.3336 0.04 -15.87857
v -224.5075 0.04 -13.98976
v -224.8405 0.04 -15.96183
v -222.8633 0.04 -19.32585
v -223.1838 0.04 -21.3
v -222.3697 0.04 -19.40597
v -222.6902 0.04 -21.38012
v -232.8201 0.04 -12.52453
v -233.1867 0.04 -14.49066
v -232.3286 0.04 -12.61617
v -232.6951 0.04 -14.58229
v -230.7812 0.04 -17.97591
v -231.1442 0.04 -19.94268
v -230.2895 0.04 -18.06667
v -230.6525 0.04 -20.03344
v -240.5151 0.04 -10.89994
v -240.9567 0.04 -12.85057
v -240.0274 0.04 -11.01034
v -240.469 0.04 -12.96098
v -238.672 0.04 -16.41952
v -239.0922 0.04 -18.37487
v -238.1832 0.04 -16.52459
v -238.6034 0.04 -18.47993
v -248.1967 0.04 -9.062311
v -248.6951 0.04 -10.99923
v -247.7125 0.04 -9.186894
v -248.2108 0.04 -11.12382
v -246.5152 0.04 -14.63337
v -246.9923 0.04 -16.57563
v -246.0296 0.04 -14.75265
v -246.5067 0.04 -16.69491
v -255.8225 0.04 -7.001146
v -256.3771 0.04 -8.922707
v -255.3421 0.04 -7.139802
v -255.8967 0.04 -9.061362
v -254.3098 0.04 -12.59047
v -254.862 0.04 -14.51275
v -253.8292 0.04 -12.72851
v -254.3814 0.04 -14.65078
v -263.1564 0.04 -4.457963
v -263.841 0.04 -6.337129
v -262.6866 0.04 -4.629124
v -263.3712 0.04 -6.508289
v -262.0023 0.04 -10.16704
v -262.6379 0.04 -12.06337
v -261.5283 0.04 -10.32594
v -262.1638 0.04 -12.22226
v -270.2603 0.04 -1.48504
v -271.1018 0.04 -3.299376
v -269.8067 0.04 -1.695424
v -270.6482 0.04 -3.50976
v -269.5641 0.04 -7.264932
v -270.3271 0.04 -9.113708
v -269.102 0.04 -7.455659
v -269.8648 0.04 -9.304435
v -276.8864 0.04 2.133359
v -277.9514 0.04 0.440438
v -276.4632 0.04 1.867133
v -277.5281 0.04 0.1742122
v -276.9005 0.04 -3.687036
v -277.864 0.04 -5.439678
v -276.4624 0.04 -3.9279
v -277.4258 0.04 -5.680542
v -282.515 0.04981114 6.663439
v -283.9193 0.04997111 5.239274
v -282.159 0.04826204 6.312393
v -283.5632 0.04842201 4.888227
v -283.7344 0.04245365 0.9680319
v -285.0077 0.0424501 -0.5742804
v -283.3488 0.04205492 0.6497089
v -284.6221 0.04205136 -0.8926033
v -286.9752 0.08407585 12.35754
v -288.6516 0.08428421 11.2667
v -286.7025 0.08086786 11.93847
v -288.3788 0.08107623 10.84763
v -289.4114 0.06896299 7.064615
v -291.0044 0.06849552 5.855319
v -289.1091 0.06688572 6.666372
v -290.7021 0.06641826 5.457076
v -290.323 0.136639 18.92998
v -292.1643 0.137377 18.14923
v -290.1278 0.1326324 18.46967
v -291.9691 0.1333703 17.68892
v -293.6696 0.1141406 14.15652
v -295.4614 0.1139861 13.26801
v -293.4475 0.1112355 13.70858
v -295.2393 0.111081 12.82007
vt 1 0
vt 0 0
vt 1 1
vt 0 1
vt 1 0
vt 0 0
vt 1 1
vt 0 1
vt 1 0
vt 0 0
vt 1 1
vt 0 1
vt 1 0
vt 0 0
vt 1 1
vt 0 1
vt 1 0
vt 0 0
vt 1 1
vt 0 1
vt 1 0
vt 0 0
vt 1 1
vt 0 1
vt 1 0
vt 0 0
vt 1 1
vt 0 1
vt 1 0
vt 0 0
vt 1 1
vt 0 1
vt 1 0
vt 0 0
vt 1 1
vt 0 1
vt 1 0
vt 0 0
vt 1 1
vt 0 1
vt 1 0
vt 0 0
vt 1 1
vt 0 1
vt 1 0
vt 0 0
vt 1 1
vt 0 1
vt 1 0
vt 0 0
vt 1 1
vt 0 1
vt 1 0
vt 0 0
vt 1 1
vt 0 1
vt 1 0
vt 0 0
vt 1 1
vt 0 1
vt 1 0
vt 0 0
vt 1 1
vt 0 1
vt 1 0
vt 0 0
vt 1 1
vt 0 1
vt 1 0
vt 0 0
vt 1 1
vt 0 1
vt 1 0
vt 0 0
vt 1 1
vt 0 1
vt 1 0
vt 0 0
vt 1 1
vt 0 1
vt 1 0
vt 0 0
vt 1 1
vt 0 1
vt 1 0
vt 0 0
vt 1 1
vt 0 1
vt 1 0
vt 0 0
vt 1 1
vt 0 1
vt 1 0
vt 0 0
vt 1 1
vt 0 1
vt 1 0
vt 0 0
vt 1 1
vt 0 1
vt 1 0
vt 0 0
vt 1 1
vt 0 1
vt 1 0
vt 0 0
vt 1 1
vt 0 1
vt 1 0
vt 0 0
vt 1 1
vt 0 1
vt 1 0
vt 0 0
vt 1 1
vt 0 1
vt 1 0
vt 0 0
vt 1 1
vt 0 1
vn 0 1 0
vn 0 1 0
vn 0 1 0
vn 0 1 0
vn 0 1 0
vn 0 1 0
vn 0 1 0
vn 0 1 0
vn 0 1 0
vn 0 1 0
vn 0 1 0
vn 0 1 0
vn 0 1 0
vn 0 1 0
vn 0 1 0
vn 0 1 0
vn 0 1 0
vn 0 1 0
vn 0 1 0
vn 0 1 0
vn 0 1 0
vn 0 1 0
vn 0 1 0
vn 0 1 0
vn 0 1 0
vn 0 1 0
vn 0 1 0
vn 0 1 0
vn 0 1 0
vn 0 1 0
vn 0 1 0
vn 0 1 0
vn 0 1 0
vn 0 1 0
vn 0 1 0
vn 0 1 0
vn 0 1 0
vn 0 1 0
vn 0 1 0
vn 0 1 0
vn 0 1 0
vn 0 1 0
vn 0 1 0
vn 0 1 0
vn 0 1 0
vn 0 1 0
vn 0 1 0
vn 0 1 0
vn 0 1 0
vn 0 1 0
vn 0 1 0
vn 0 1 0
vn 0 1 0
vn 0 1 0
vn 0 1 0
vn 0 1 0
vn 0 1 0
vn 0 1 0
vn 0 1 0
vn 0 1 0
vn 0 1 0
vn 0 1 0
vn 0 1 0
vn 0 1 0
vn 0 1 0
vn 0 1 0
vn 0 1 0
vn 0 1 0
vn 0 1 0
vn 0 1 0
vn 0 1 0
vn 0 1 0
vn 0 1 0
vn 0 1 0
vn 0 1 0
vn 0 1 0
vn 0 1 0
vn 0 1 0
vn 0 1 0
vn 0 1 0
vn 0 1 0
vn 0 1 0
vn 0 1 0
vn 0 1 0
vn 0 1 0
vn 0 1 0
vn 0 1 0
vn 0 1 0
vn 0 1 0
vn 0 1 0
vn 0 1 0
vn 0 1 0
vn 0 1 0
vn 0 1 0
vn 0 1 0
vn 0 1 0
vn 0.002262395 0.9999952 -0.002118358
vn 0.00226236 0.9999953 -0.002118301
vn 0.00226236 0.9999953 -0.002118301
vn 0.002262325 0.9999952 -0.002118243
vn 0.0006138249 0.9999998 -0.0005090566
vn 0.0006138387 0.9999998 -0.0005090752
vn 0.0006138387 0.9999998 -0.0005090752
vn 0.0006138523 0.9999997 -0.0005090939
vn 0.0035867 0.9999794 -0.005320819
vn 0.003586696 0.9999795 -0.005320807
vn 0.003586696 0.9999795 -0.005320807
vn 0.003586692 0.9999795 -0.005320794
vn 0.002325903 0.9999914 -0.003450436
vn 0.002325871 0.9999914 -0.003450363
vn 0.002325871 0.9999914 -0.003450363
vn 0.00232584 0.9999914 -0.00345029
vn 0.003467884 0.9999678 -0.007233451
vn 0.003467882 0.9999678 -0.007233436
vn 0.003467882 0.9999678 -0.007233436
vn 0.003467879 0.9999678 -0.00723342
vn 0.002511992 0.9999832 -0.005239575
vn 0.002512007 0.9999831 -0.005239644
vn 0.002512007 0.9999831 -0.005239644
vn 0.002512022 0.9999832 -0.005239714
g group0
usemtl Mat0
f 1/1/1 3/3/3 2/2/2
f 4/4/4 2/2/2 3/3/3
f 5/5/5 7/7/7 6/6/6
f 8/8/8 6/6/6 7/7/7
f 9/9/9 11/11/11 10/10/10
f 12/12/12 10/10/10 11/11/11
f 13/13/13 15/15/15 14/14/14
f 16/16/16 14/14/14 15/15/15
f 17/17/17 19/19/19 18/18/18
f 20/20/20 18/18/18 19/19/19
f 21/21/21 23/23/23 22/22/22
f 24/24/24 22/22/22 23/23/23
f 25/25/25 27/27/27 26/26/26
f 28/28/28 26/26/26 27/27/27
f 29/29/29 31/31/31 30/30/30
f 32/32/32 30/30/30 31/31/31
f 33/33/33 35/35/35 34/34/34
f 36/36/36 34/34/34 35/35/35
f 37/37/37 39/39/39 38/38/38
f 40/40/40 38/38/38 39/39/39
f 41/41/41 43/43/43 42/42/42
f 44/44/44 42/42/42 43/43/43
f 45/45/45 47/47/47 46/46/46
f 48/48/48 46/46/46 47/47/47
f 49/49/49 51/51/51 50/50/50
f 52/52/52 50/50/50 51/51/51
f 53/53/53 55/55/55 54/54/54
f 56/56/56 54/54/54 55/55/55
f 57/57/57 59/59/59 58/58/58
f 60/60/60 58/58/58 59/59/59
f 61/61/61 63/63/63 62/62/62
f 64/64/64 62/62/62 63/63/63
f 65/65/65 67/67/67 66/66/66
f 68/68/68 66/66/66 67/67/67
f 69/69/69 71/71/71 70/70/70
f 72/72/72 70/70/70 71/71/71
f 73/73/73 75/75/75 74/74/74
f 76/76/76 74/74/74 75/75/75
f 77/77/77 79/79/79 78/78/78
f 80/80/80 78/78/78 79/79/79
f 81/81/81 83/83/83 82/82/82
f 84/84/84 82/82/82 83/83/83
f 85/85/85 87/87/87 86/86/86
f 88/88/88 86/86/86 87/87/87
f 89/89/89 91/91/91 90/90/90
f 92/92/92 90/90/90 91/91/91
f 93/93/93 95/95/95 94/94/94
f 96/96/96 94/94/94 95/95/95
f 97/97/97 99/99/99 98/98/98
f 100/100/100 98/98/98 99/99/99
f 101/101/101 103/103/103 102/102/102
f 104/104/104 102/102/102 103/103/103
f 105/105/105 107/107/107 106/106/106
f 108/108/108 106/106/106 107/107/107
f 109/109/109 111/111/111 110/110/110
f 112/112/112 110/110/110 111/111/111
f 113/113/113 115/115/115 114/114/114
f 116/116/116 114/114/114 115/115/115
f 117/117/117 119/119/119 118/118/118
f 120/120/120 118/118/118 119/119/119
