# =================================== #
# Created by Kajaman's Road Generator #
# =================================== #
mtllib SkyTrack05_RallyBoard
o SkyTrack05_RallyBoard
v 256.8087 1 -15.52556
v 256.9536 1 -17.52031
v 256.8087 3 -15.52556
v 256.9536 3 -17.52031
v 256.9536 1 -17.52031
v 256.8087 1 -15.52556
v 256.9536 3 -17.52031
v 256.8087 3 -15.52556
v 287.1136 1.731626 106.6703
v 289.0849 1.731626 107.008
v 287.1136 3.731626 106.6703
v 289.0849 3.731626 107.008
v 289.0849 1.731626 107.008
v 287.1136 1.731626 106.6703
v 289.0849 3.731626 107.008
v 287.1136 3.731626 106.6703
v 63.35932 -8.679035 17.36619
v 62.14882 -8.679035 18.95826
v 63.35932 -6.679035 17.36619
v 62.14882 -6.679035 18.95826
v 62.14882 -8.679035 18.95826
v 63.35932 -8.679035 17.36619
v 62.14882 -6.679035 18.95826
v 63.35932 -6.679035 17.36619
v 69.45549 -4.602374 -56.32624
v 67.56851 -4.602374 -56.98904
v 69.45549 -2.602374 -56.32624
v 67.56851 -2.602374 -56.98904
v 67.56851 -4.602374 -56.98904
v 69.45549 -4.602374 -56.32624
v 67.56851 -2.602374 -56.98904
v 69.45549 -2.602374 -56.32624
v 154.0279 5.953273 -59.58928
v 154.3542 5.953273 -61.56247
v 154.0279 7.953273 -59.58928
v 154.3542 7.953273 -61.56247
v 154.3542 5.953273 -61.56247
v 154.0279 5.953273 -59.58928
v 154.3542 7.953273 -61.56247
v 154.0279 7.953273 -59.58928
v 38.81153 1.899678 135.1083
v 40.03718 1.899678 136.6887
v 38.81153 3.899678 135.1083
v 40.03718 3.899678 136.6887
v 40.03718 1.899678 136.6887
v 38.81153 1.899678 135.1083
v 40.03718 3.899678 136.6887
v 38.81153 3.899678 135.1083
v -177.1331 10.62784 16.64745
v -178.48 10.62784 18.12595
v -177.1331 12.62784 16.64745
v -178.48 12.62784 18.12595
v -178.48 10.62784 18.12595
v -177.1331 10.62784 16.64745
v -178.48 12.62784 18.12595
v -177.1331 12.62784 16.64745
v -145.1253 4.773685 -65.59415
v -146.5826 4.773685 -66.96391
v -145.1253 6.773685 -65.59415
v -146.5826 6.773685 -66.96391
v -146.5826 4.773685 -66.96391
v -145.1253 4.773685 -65.59415
v -146.5826 6.773685 -66.96391
v -145.1253 6.773685 -65.59415
v -54.6609 -4.706679 -55.59637
v -54.16682 -4.706679 -57.53438
v -54.6609 -2.706679 -55.59637
v -54.16682 -2.706679 -57.53438
v -54.16682 -4.706679 -57.53438
v -54.6609 -4.706679 -55.59637
v -54.16682 -2.706679 -57.53438
v -54.6609 -2.706679 -55.59637
v -217.7474 -0.15263 138.2322
v -216.654 -0.15263 139.9069
v -217.7474 1.84737 138.2322
v -216.654 1.84737 139.9069
v -216.654 -0.15263 139.9069
v -217.7474 -0.15263 138.2322
v -216.654 1.84737 139.9069
v -217.7474 1.84737 138.2322
vt 0.5 0
vt 0.25 0
vt 0.5 1
vt 0.25 1
vt 0.25 0
vt 0.5 0
vt 0.25 1
vt 0.5 1
vt 0.75 0
vt 0.5 0
vt 0.75 1
vt 0.5 1
vt 0.5 0
vt 0.75 0
vt 0.5 1
vt 0.75 1
vt 0.5 0
vt 0.25 0
vt 0.5 1
vt 0.25 1
vt 0.25 0
vt 0.5 0
vt 0.25 1
vt 0.5 1
vt 0.75 0
vt 0.5 0
vt 0.75 1
vt 0.5 1
vt 0.5 0
vt 0.75 0
vt 0.5 1
vt 0.75 1
vt 0.75 0
vt 0.5 0
vt 0.75 1
vt 0.5 1
vt 0.5 0
vt 0.75 0
vt 0.5 1
vt 0.75 1
vt 0.25 0
vt 0 0
vt 0.25 1
vt 0 1
vt 0 0
vt 0.25 0
vt 0 1
vt 0.25 1
vt 0.5 0
vt 0.25 0
vt 0.5 1
vt 0.25 1
vt 0.25 0
vt 0.5 0
vt 0.25 1
vt 0.5 1
vt 0.5 0
vt 0.25 0
vt 0.5 1
vt 0.25 1
vt 0.25 0
vt 0.5 0
vt 0.25 1
vt 0.5 1
vt 0.75 0
vt 0.5 0
vt 0.75 1
vt 0.5 1
vt 0.5 0
vt 0.75 0
vt 0.5 1
vt 0.75 1
vt 0.75 0
vt 0.5 0
vt 0.75 1
vt 0.5 1
vt 0.5 0
vt 0.75 0
vt 0.5 1
vt 0.75 1
vn -0.9973722 0 -0.07244877
vn -0.9973722 0 -0.07244877
vn -0.9973722 0 -0.07244877
vn -0.9973722 0 -0.07244877
vn 0.9973722 0 0.07244877
vn 0.9973722 0 0.07244877
vn 0.9973722 0 0.07244877
vn 0.9973722 0 0.07244877
vn 0.1688289 0 -0.9856454
vn 0.1688289 0 -0.9856454
vn 0.1688289 0 -0.9856454
vn 0.1688289 0 -0.9856454
vn -0.1688289 0 0.9856454
vn -0.1688289 0 0.9856454
vn -0.1688289 0 0.9856454
vn -0.1688289 0 0.9856454
vn 0.7960342 0 0.6052516
vn 0.7960342 0 0.6052516
vn 0.7960342 0 0.6052516
vn 0.7960342 0 0.6052516
vn -0.7960342 0 -0.6052516
vn -0.7960342 0 -0.6052516
vn -0.7960342 0 -0.6052516
vn -0.7960342 0 -0.6052516
vn -0.331402 0 0.9434896
vn -0.331402 0 0.9434896
vn -0.331402 0 0.9434896
vn -0.331402 0 0.9434896
vn 0.331402 0 -0.9434896
vn 0.331402 0 -0.9434896
vn 0.331402 0 -0.9434896
vn 0.331402 0 -0.9434896
vn -0.9865967 0 -0.1631777
vn -0.9865967 0 -0.1631777
vn -0.9865967 0 -0.1631777
vn -0.9865967 0 -0.1631777
vn 0.9865967 0 0.1631777
vn 0.9865967 0 0.1631777
vn 0.9865967 0 0.1631777
vn 0.9865967 0 0.1631777
vn 0.7902189 0 -0.6128247
vn 0.7902189 0 -0.6128247
vn 0.7902189 0 -0.6128247
vn 0.7902189 0 -0.6128247
vn -0.7902189 0 0.6128247
vn -0.7902189 0 0.6128247
vn -0.7902189 0 0.6128247
vn -0.7902189 0 0.6128247
vn 0.7392508 0 0.6734303
vn 0.7392508 0 0.6734303
vn 0.7392508 0 0.6734303
vn 0.7392508 0 0.6734303
vn -0.7392508 0 -0.6734303
vn -0.7392508 0 -0.6734303
vn -0.7392508 0 -0.6734303
vn -0.7392508 0 -0.6734303
vn -0.6848715 0 0.728664
vn -0.6848715 0 0.728664
vn -0.6848715 0 0.728664
vn -0.6848715 0 0.728664
vn 0.6848715 0 -0.728664
vn 0.6848715 0 -0.728664
vn 0.6848715 0 -0.728664
vn 0.6848715 0 -0.728664
vn -0.9690063 0 -0.2470362
vn -0.9690063 0 -0.2470362
vn -0.9690063 0 -0.2470362
vn -0.9690063 0 -0.2470362
vn 0.9690063 0 0.2470362
vn 0.9690063 0 0.2470362
vn 0.9690063 0 0.2470362
vn 0.9690063 0 0.2470362
vn 0.8373361 0 -0.5466885
vn 0.8373361 0 -0.5466885
vn 0.8373361 0 -0.5466885
vn 0.8373361 0 -0.5466885
vn -0.8373361 0 0.5466885
vn -0.8373361 0 0.5466885
vn -0.8373361 0 0.5466885
vn -0.8373361 0 0.5466885
g group0
usemtl Mat0
f 1/1/1 3/3/3 2/2/2
f 4/4/4 2/2/2 3/3/3
f 5/5/5 7/7/7 6/6/6
f 8/8/8 6/6/6 7/7/7
f 9/9/9 11/11/11 10/10/10
f 12/12/12 10/10/10 11/11/11
f 13/13/13 15/15/15 14/14/14
f 16/16/16 14/14/14 15/15/15
f 17/17/17 19/19/19 18/18/18
f 20/20/20 18/18/18 19/19/19
f 21/21/21 23/23/23 22/22/22
f 24/24/24 22/22/22 23/23/23
f 25/25/25 27/27/27 26/26/26
f 28/28/28 26/26/26 27/27/27
f 29/29/29 31/31/31 30/30/30
f 32/32/32 30/30/30 31/31/31
f 33/33/33 35/35/35 34/34/34
f 36/36/36 34/34/34 35/35/35
f 37/37/37 39/39/39 38/38/38
f 40/40/40 38/38/38 39/39/39
f 41/41/41 43/43/43 42/42/42
f 44/44/44 42/42/42 43/43/43
f 45/45/45 47/47/47 46/46/46
f 48/48/48 46/46/46 47/47/47
f 49/49/49 51/51/51 50/50/50
f 52/52/52 50/50/50 51/51/51
f 53/53/53 55/55/55 54/54/54
f 56/56/56 54/54/54 55/55/55
f 57/57/57 59/59/59 58/58/58
f 60/60/60 58/58/58 59/59/59
f 61/61/61 63/63/63 62/62/62
f 64/64/64 62/62/62 63/63/63
f 65/65/65 67/67/67 66/66/66
f 68/68/68 66/66/66 67/67/67
f 69/69/69 71/71/71 70/70/70
f 72/72/72 70/70/70 71/71/71
f 73/73/73 75/75/75 74/74/74
f 76/76/76 74/74/74 75/75/75
f 77/77/77 79/79/79 78/78/78
f 80/80/80 78/78/78 79/79/79
