# =================================== #
# Created by Kajaman's Road Generator #
# =================================== #
mtllib SkyTrack05_BrakeBoard
o SkyTrack05_BrakeBoard
v 221.8989 1 -23.04385
v 221.8842 1 -25.04379
v 221.8989 3 -23.04385
v 221.8842 3 -25.04379
v 221.8842 1 -25.04379
v 221.8989 1 -23.04385
v 221.8842 3 -25.04379
v 221.8989 3 -23.04385
v 171.806 1 -28.65716
v 171.6783 1 -30.65308
v 171.806 3 -28.65716
v 171.6783 3 -30.65308
v 171.6783 1 -30.65308
v 171.806 1 -28.65716
v 171.6783 3 -30.65308
v 171.806 3 -28.65716
v 121.6762 1 -31.43236
v 121.4868 1 -33.42337
v 121.6762 3 -31.43236
v 121.4868 3 -33.42337
v 121.4868 1 -33.42337
v 121.6762 1 -31.43236
v 121.4868 3 -33.42337
v 121.6762 3 -31.43236
v 71.57153 1 -32.6572
v 71.34553 1 -34.64439
v 71.57153 3 -32.6572
v 71.34553 3 -34.64439
v 71.34553 1 -34.64439
v 71.57153 1 -32.6572
v 71.34553 3 -34.64439
v 71.57153 3 -32.6572
v 88.51985 -7.538772 42.45081
v 87.4063 -7.538772 44.11213
v 88.51985 -5.538772 42.45081
v 87.4063 -5.538772 44.11213
v 87.4063 -7.538772 44.11213
v 88.51985 -7.538772 42.45081
v 87.4063 -5.538772 44.11213
v 88.51985 -5.538772 42.45081
v 126.7077 -5.469586 75.24521
v 125.6994 -5.469586 76.97241
v 126.7077 -3.469586 75.24521
v 125.6994 -3.469586 76.97241
v 125.6994 -5.469586 76.97241
v 126.7077 -5.469586 75.24521
v 125.6994 -3.469586 76.97241
v 126.7077 -3.469586 75.24521
v 69.99467 3.448996 117.5186
v 71.38921 3.448996 118.9522
v 69.99467 5.448996 117.5186
v 71.38921 5.448996 118.9522
v 71.38921 3.448996 118.9522
v 69.99467 3.448996 117.5186
v 71.38921 5.448996 118.9522
v 69.99467 5.448996 117.5186
v -154.3473 9.163364 43.97998
v -155.5756 9.163364 45.5584
v -154.3473 11.16336 43.97998
v -155.5756 11.16336 45.5584
v -155.5756 9.163364 45.5584
v -154.3473 9.163364 43.97998
v -155.5756 11.16336 45.5584
v -154.3473 11.16336 43.97998
v -118.4755 6.584373 79.48345
v -119.5383 6.584373 81.17771
v -118.4755 8.584373 79.48345
v -119.5383 8.584373 81.17771
v -119.5383 6.584373 81.17771
v -118.4755 6.584373 79.48345
v -119.5383 8.584373 81.17771
v -118.4755 8.584373 79.48345
v -185.5341 -1.698354 123.0059
v -184.3248 -1.698354 124.5989
v -185.5341 0.301646 123.0059
v -184.3248 0.301646 124.5989
v -184.3248 -1.698354 124.5989
v -185.5341 -1.698354 123.0059
v -184.3248 0.301646 124.5989
v -185.5341 0.301646 123.0059
v -142.0793 -3.850338 97.52483
v -140.7741 -3.850338 99.04031
v -142.0793 -1.850338 97.52483
v -140.7741 -1.850338 99.04031
v -140.7741 -3.850338 99.04031
v -142.0793 -3.850338 97.52483
v -140.7741 -1.850338 99.04031
v -142.0793 -1.850338 97.52483
vt 0.25 0
vt 0 0
vt 0.25 1
vt 0 1
vt 0 0
vt 0.25 0
vt 0 1
vt 0.25 1
vt 0.5 0
vt 0.25 0
vt 0.5 1
vt 0.25 1
vt 0.25 0
vt 0.5 0
vt 0.25 1
vt 0.5 1
vt 0.75 0
vt 0.5 0
vt 0.75 1
vt 0.5 1
vt 0.5 0
vt 0.75 0
vt 0.5 1
vt 0.75 1
vt 1 0
vt 0.75 0
vt 1 1
vt 0.75 1
vt 0.75 0
vt 1 0
vt 0.75 1
vt 1 1
vt 0.25 0
vt 0 0
vt 0.25 1
vt 0 1
vt 0 0
vt 0.25 0
vt 0 1
vt 0.25 1
vt 0.5 0
vt 0.25 0
vt 0.5 1
vt 0.25 1
vt 0.25 0
vt 0.5 0
vt 0.25 1
vt 0.5 1
vt 0.25 0
vt 0 0
vt 0.25 1
vt 0 1
vt 0 0
vt 0.25 0
vt 0 1
vt 0.25 1
vt 0.25 0
vt 0 0
vt 0.25 1
vt 0 1
vt 0 0
vt 0.25 0
vt 0 1
vt 0.25 1
vt 0.5 0
vt 0.25 0
vt 0.5 1
vt 0.25 1
vt 0.25 0
vt 0.5 0
vt 0.25 1
vt 0.5 1
vt 0.25 0
vt 0 0
vt 0.25 1
vt 0 1
vt 0 0
vt 0.25 0
vt 0 1
vt 0.25 1
vt 0.5 0
vt 0.25 0
vt 0.5 1
vt 0.25 1
vt 0.25 0
vt 0.5 0
vt 0.25 1
vt 0.5 1
vn -0.9999732 0 0.007324218
vn -0.9999732 0 0.007324218
vn -0.9999732 0 0.007324218
vn -0.9999732 0 0.007324218
vn 0.9999732 0 -0.007324218
vn 0.9999732 0 -0.007324218
vn 0.9999732 0 -0.007324218
vn 0.9999732 0 -0.007324218
vn -0.99796 0 0.06384283
vn -0.99796 0 0.06384283
vn -0.99796 0 0.06384283
vn -0.99796 0 0.06384283
vn 0.99796 0 -0.06384283
vn 0.99796 0 -0.06384283
vn 0.99796 0 -0.06384283
vn 0.99796 0 -0.06384283
vn -0.9955049 0 0.09471126
vn -0.9955049 0 0.09471126
vn -0.9955049 0 0.09471126
vn -0.9955049 0 0.09471126
vn 0.9955049 0 -0.09471126
vn 0.9955049 0 -0.09471126
vn 0.9955049 0 -0.09471126
vn 0.9955049 0 -0.09471126
vn -0.9935951 0 0.112999
vn -0.9935951 0 0.112999
vn -0.9935951 0 0.112999
vn -0.9935951 0 0.112999
vn 0.9935951 0 -0.112999
vn 0.9935951 0 -0.112999
vn 0.9935951 0 -0.112999
vn 0.9935951 0 -0.112999
vn 0.8306615 0 0.5567778
vn 0.8306615 0 0.5567778
vn 0.8306615 0 0.5567778
vn 0.8306615 0 0.5567778
vn -0.8306615 0 -0.5567778
vn -0.8306615 0 -0.5567778
vn -0.8306615 0 -0.5567778
vn -0.8306615 0 -0.5567778
vn 0.8636023 0 0.5041736
vn 0.8636023 0 0.5041736
vn 0.8636023 0 0.5041736
vn 0.8636023 0 0.5041736
vn -0.8636023 0 -0.5041736
vn -0.8636023 0 -0.5041736
vn -0.8636023 0 -0.5041736
vn -0.8636023 0 -0.5041736
vn 0.716805 0 -0.6972737
vn 0.716805 0 -0.6972737
vn 0.716805 0 -0.6972737
vn 0.716805 0 -0.6972737
vn -0.716805 0 0.6972737
vn -0.716805 0 0.6972737
vn -0.716805 0 0.6972737
vn -0.716805 0 0.6972737
vn 0.7892119 0 0.614121
vn 0.7892119 0 0.614121
vn 0.7892119 0 0.614121
vn 0.7892119 0 0.614121
vn -0.7892119 0 -0.614121
vn -0.7892119 0 -0.614121
vn -0.7892119 0 -0.614121
vn -0.7892119 0 -0.614121
vn 0.8471292 0 0.531387
vn 0.8471292 0 0.531387
vn 0.8471292 0 0.531387
vn 0.8471292 0 0.531387
vn -0.8471292 0 -0.531387
vn -0.8471292 0 -0.531387
vn -0.8471292 0 -0.531387
vn -0.8471292 0 -0.531387
vn 0.7964845 0 -0.604659
vn 0.7964845 0 -0.604659
vn 0.7964845 0 -0.604659
vn 0.7964845 0 -0.604659
vn -0.7964845 0 0.604659
vn -0.7964845 0 0.604659
vn -0.7964845 0 0.604659
vn -0.7964845 0 0.604659
vn 0.757738 0 -0.6525589
vn 0.757738 0 -0.6525589
vn 0.757738 0 -0.6525589
vn 0.757738 0 -0.6525589
vn -0.757738 0 0.6525589
vn -0.757738 0 0.6525589
vn -0.757738 0 0.6525589
vn -0.757738 0 0.6525589
g group0
usemtl Mat0
f 1/1/1 3/3/3 2/2/2
f 4/4/4 2/2/2 3/3/3
f 5/5/5 7/7/7 6/6/6
f 8/8/8 6/6/6 7/7/7
f 9/9/9 11/11/11 10/10/10
f 12/12/12 10/10/10 11/11/11
f 13/13/13 15/15/15 14/14/14
f 16/16/16 14/14/14 15/15/15
f 17/17/17 19/19/19 18/18/18
f 20/20/20 18/18/18 19/19/19
f 21/21/21 23/23/23 22/22/22
f 24/24/24 22/22/22 23/23/23
f 25/25/25 27/27/27 26/26/26
f 28/28/28 26/26/26 27/27/27
f 29/29/29 31/31/31 30/30/30
f 32/32/32 30/30/30 31/31/31
f 33/33/33 35/35/35 34/34/34
f 36/36/36 34/34/34 35/35/35
f 37/37/37 39/39/39 38/38/38
f 40/40/40 38/38/38 39/39/39
f 41/41/41 43/43/43 42/42/42
f 44/44/44 42/42/42 43/43/43
f 45/45/45 47/47/47 46/46/46
f 48/48/48 46/46/46 47/47/47
f 49/49/49 51/51/51 50/50/50
f 52/52/52 50/50/50 51/51/51
f 53/53/53 55/55/55 54/54/54
f 56/56/56 54/54/54 55/55/55
f 57/57/57 59/59/59 58/58/58
f 60/60/60 58/58/58 59/59/59
f 61/61/61 63/63/63 62/62/62
f 64/64/64 62/62/62 63/63/63
f 65/65/65 67/67/67 66/66/66
f 68/68/68 66/66/66 67/67/67
f 69/69/69 71/71/71 70/70/70
f 72/72/72 70/70/70 71/71/71
f 73/73/73 75/75/75 74/74/74
f 76/76/76 74/74/74 75/75/75
f 77/77/77 79/79/79 78/78/78
f 80/80/80 78/78/78 79/79/79
f 81/81/81 83/83/83 82/82/82
f 84/84/84 82/82/82 83/83/83
f 85/85/85 87/87/87 86/86/86
f 88/88/88 86/86/86 87/87/87
